<svg width="462" height="267" viewBox="0 0 462 267" fill="none" xmlns="http://www.w3.org/2000/svg">
<g clip-path="url(#clip0_31:671)">
<path d="M154.3 254.976V229.555H142.634C142.416 234.858 141.729 239.712 140.572 244.115C139.417 248.519 137.917 252.14 136.075 254.976H154.3ZM162.241 266.406H157.837V258.81H133.194V266.406H128.789V254.976H131.601C133.631 251.798 135.251 247.651 136.461 242.534C137.671 237.417 138.277 231.813 138.277 225.723H158.938V254.976H162.241V266.406ZM122.34 242.322C122.34 238.014 121.325 234.691 119.295 232.352C117.265 230.011 114.493 228.842 110.979 228.842C107.434 228.842 104.65 230.011 102.628 232.352C100.606 234.691 99.5945 238.014 99.5945 242.322C99.5945 246.674 100.626 250.005 102.687 252.314C104.748 254.624 107.512 255.779 110.979 255.779C114.446 255.779 117.206 254.624 119.26 252.314C121.313 250.005 122.34 246.674 122.34 242.322ZM122.762 229.533C124.183 231.019 125.272 232.838 126.03 234.992C126.787 237.145 127.166 239.589 127.166 242.322C127.166 245.055 126.779 247.501 126.006 249.663C125.233 251.824 124.151 253.625 122.762 255.065C121.325 256.567 119.627 257.694 117.667 258.452C115.707 259.21 113.47 259.589 110.955 259.589C108.503 259.589 106.274 259.202 104.267 258.43C102.261 257.657 100.555 256.536 99.1498 255.065C97.744 253.596 96.6627 251.791 95.9051 249.652C95.1474 247.512 94.7694 245.07 94.7694 242.322C94.7694 239.619 95.1433 237.194 95.8927 235.047C96.6429 232.901 97.7358 231.063 99.1728 229.533C100.546 228.078 102.254 226.963 104.291 226.191C106.329 225.419 108.551 225.032 110.955 225.032C113.454 225.032 115.699 225.422 117.691 226.201C119.682 226.982 121.372 228.092 122.762 229.533ZM86.007 235.86C86.007 234.717 85.7962 233.721 85.3746 232.875C84.9529 232.028 84.3122 231.338 83.4541 230.802C82.7039 230.342 81.8491 230.011 80.8888 229.811C79.9286 229.612 78.7139 229.51 77.2463 229.51H72.6552V242.768H76.5669C78.4405 242.768 79.9632 242.608 81.1351 242.288C82.3061 241.969 83.2589 241.46 83.9927 240.762C84.7265 240.049 85.2461 239.3 85.5508 238.512C85.8555 237.725 86.007 236.841 86.007 235.86ZM90.8329 235.749C90.8329 237.219 90.5636 238.583 90.025 239.837C89.4856 241.093 88.7329 242.181 87.7645 243.102C86.5613 244.245 85.1407 245.103 83.501 245.675C81.8606 246.247 79.7911 246.533 77.2933 246.533H72.6552V258.898H68.0162V225.723H77.4802C79.5728 225.723 81.3459 225.89 82.7978 226.224C84.2505 226.558 85.5385 227.082 86.6634 227.795C87.9909 228.642 89.017 229.696 89.7442 230.959C90.4698 232.221 90.8329 233.818 90.8329 235.749ZM53.5065 245.865L47.3918 229.578L41.2548 245.865H53.5065ZM63.2982 258.898H58.3546L54.9353 249.652H39.8491L36.4289 258.898H31.7208L44.4172 225.723H50.6011L63.2982 258.898ZM27.002 258.898H22.3639V242.656H4.95941V258.898H0.321289V225.723H4.95941V238.735H22.3639V225.723H27.002V258.898Z" fill="#134982"/>
<path d="M274.112 258.898H251.132V225.723H274.112V229.644H255.771V238.735H274.112V242.656H255.771V254.976H274.112V258.898ZM245.307 256.492C244.449 256.849 243.671 257.183 242.977 257.494C242.282 257.806 241.372 258.134 240.247 258.475C239.295 258.758 238.26 258.998 237.144 259.2C236.027 259.399 234.797 259.5 233.453 259.5C230.923 259.5 228.624 259.161 226.555 258.486C224.486 257.811 222.686 256.752 221.156 255.311C219.657 253.899 218.486 252.106 217.642 249.93C216.798 247.754 216.377 245.225 216.377 242.344C216.377 239.611 216.783 237.168 217.595 235.014C218.407 232.861 219.578 231.04 221.109 229.555C222.593 228.115 224.385 227.015 226.485 226.257C228.585 225.501 230.915 225.122 233.477 225.122C235.352 225.122 237.221 225.337 239.088 225.767C240.953 226.199 243.027 226.956 245.307 228.041V233.276H244.956C243.035 231.747 241.129 230.632 239.239 229.934C237.349 229.236 235.328 228.887 233.173 228.887C231.409 228.887 229.819 229.159 228.406 229.7C226.993 230.243 225.732 231.084 224.623 232.228C223.545 233.342 222.705 234.75 222.104 236.451C221.503 238.152 221.203 240.116 221.203 242.344C221.203 244.676 221.534 246.681 222.198 248.359C222.862 250.038 223.717 251.405 224.763 252.46C225.856 253.559 227.133 254.372 228.594 254.899C230.054 255.427 231.595 255.69 233.219 255.69C235.453 255.69 237.545 255.326 239.498 254.599C241.45 253.87 243.277 252.778 244.979 251.322H245.307V256.492ZM207.358 248.872C207.358 247.535 207.147 246.474 206.725 245.686C206.304 244.899 205.538 244.231 204.43 243.681C203.68 243.309 202.77 243.067 201.7 242.956C200.631 242.845 199.33 242.789 197.8 242.789H190.515V255.133H196.652C198.682 255.133 200.345 255.033 201.642 254.833C202.938 254.632 204 254.264 204.828 253.729C205.702 253.15 206.343 252.49 206.749 251.746C207.155 251.003 207.358 250.046 207.358 248.872ZM204.383 233.744C204.383 232.942 204.243 232.265 203.961 231.716C203.68 231.167 203.227 230.721 202.602 230.38C201.868 229.978 200.978 229.731 199.932 229.633C198.886 229.537 197.589 229.489 196.044 229.489H190.515V239.069H196.512C197.964 239.069 199.12 238.998 199.978 238.857C200.838 238.716 201.634 238.423 202.368 237.977C203.102 237.531 203.622 236.957 203.926 236.25C204.23 235.546 204.383 234.709 204.383 233.744ZM212.183 248.694C212.183 250.342 211.855 251.798 211.2 253.06C210.544 254.323 209.661 255.363 208.552 256.181C207.24 257.161 205.8 257.859 204.23 258.274C202.661 258.69 200.666 258.898 198.246 258.898H185.877V225.723H196.207C198.752 225.723 200.658 225.812 201.923 225.99C203.188 226.168 204.398 226.541 205.554 227.104C206.834 227.743 207.764 228.564 208.341 229.566C208.92 230.568 209.209 231.769 209.209 233.164C209.209 234.74 208.786 236.079 207.944 237.186C207.1 238.293 205.975 239.18 204.57 239.849V240.027C206.928 240.487 208.786 241.471 210.145 242.979C211.503 244.487 212.183 246.391 212.183 248.694Z" fill="#134982"/>
<path d="M460.858 229.644H448.396V258.898H443.757V229.644H431.295V225.723H460.858V229.644ZM426.879 258.898H422.265V232.318L404.93 258.898H400.244V225.723H404.86V251.903L421.984 225.723H426.879V258.898ZM386.767 254.976V229.555H375.1C374.881 234.858 374.194 239.712 373.039 244.115C371.883 248.519 370.384 252.14 368.541 254.976H386.767ZM394.708 266.406H390.304V258.81H365.66V266.406H361.256V254.976H364.068C366.097 251.798 367.718 247.651 368.928 242.534C370.138 237.417 370.743 231.813 370.743 225.723H391.404V254.976H394.708V266.406ZM356.705 258.898H352.092V232.318L334.757 258.898H330.071V225.723H334.687V251.903L351.811 225.723H356.705V258.898ZM319.815 248.872C319.815 247.535 319.604 246.474 319.184 245.686C318.762 244.899 317.996 244.23 316.888 243.681C316.137 243.309 315.228 243.067 314.158 242.956C313.088 242.845 311.788 242.789 310.258 242.789H302.973V255.133H309.11C311.14 255.133 312.804 255.033 314.1 254.833C315.396 254.632 316.458 254.264 317.285 253.729C318.16 253.15 318.801 252.49 319.206 251.746C319.612 251.003 319.815 250.046 319.815 248.872ZM316.84 233.744C316.84 232.942 316.7 232.265 316.419 231.716C316.137 231.167 315.685 230.721 315.061 230.38C314.326 229.978 313.435 229.731 312.39 229.633C311.344 229.537 310.047 229.489 308.501 229.489H302.973V239.069H308.969C310.421 239.069 311.577 238.998 312.436 238.857C313.295 238.716 314.092 238.423 314.826 237.977C315.559 237.531 316.079 236.957 316.384 236.25C316.687 235.546 316.84 234.709 316.84 233.744ZM324.641 248.694C324.641 250.342 324.313 251.798 323.657 253.06C323.001 254.323 322.119 255.363 321.01 256.181C319.698 257.161 318.258 257.859 316.688 258.274C315.119 258.69 313.123 258.898 310.704 258.898H298.333V225.723H308.665C311.211 225.723 313.116 225.812 314.381 225.99C315.647 226.168 316.855 226.541 318.013 227.104C319.292 227.743 320.221 228.564 320.799 229.566C321.377 230.568 321.667 231.769 321.667 233.164C321.667 234.74 321.245 236.079 320.401 237.186C319.558 238.293 318.433 239.18 317.028 239.849V240.027C319.386 240.487 321.245 241.471 322.604 242.979C323.962 244.487 324.641 246.391 324.641 248.694Z" fill="#134982"/>
<path d="M274.054 52.0284C273.214 43.2479 266.708 37.4596 256.019 37.1392C242.826 36.7476 215.212 37.0444 215.212 37.0444L215.155 71.9634C215.155 71.9634 243.032 71.9791 256.513 71.9321C256.916 71.9321 257.649 71.8686 258.053 71.7676C258.333 71.6963 264.666 70.4039 268.495 67.0124C272.769 63.237 274.532 57.0883 274.054 52.0284ZM280.239 131.765C276.698 140.052 269.096 143.178 260.82 143.554C245.98 144.227 215.138 143.742 215.138 143.742V101.484C215.138 101.484 249.678 101.508 263.406 102.98C281.556 104.923 284.842 121.003 280.239 131.765Z" fill="#134982"/>
<path d="M163.281 180.155H115.253V107.249H48.5306V180.171H1.03682L0 0.865479H48.2662V66.025H115.508V1.18584H162.762L163.281 180.155Z" fill="#134982"/>
<path d="M410.612 131.765C407.07 140.052 399.469 143.177 391.193 143.553C376.353 144.227 345.503 143.741 345.503 143.741V101.484C345.503 101.484 380.042 101.507 393.779 102.98C411.929 104.922 415.215 121.003 410.612 131.765ZM345.586 37.0441C345.586 37.0441 373.19 36.7473 386.383 37.1389C397.081 37.4592 403.587 43.2476 404.419 52.0281C404.905 57.088 403.134 63.2367 398.868 67.0121C395.039 70.4036 388.698 71.696 388.426 71.7673C388.022 71.8683 387.289 71.9318 386.886 71.9318C373.405 71.9788 345.52 71.9631 345.52 71.9631L345.586 37.0441ZM461.152 122.812C460.921 106.183 452.538 94.1211 437.533 86.0064C435.342 84.8236 433.053 83.7976 429.981 82.2937C432.476 80.453 433.975 79.2546 435.565 78.1737C451.113 67.576 455.799 52.82 452.694 35.6342C450.347 22.6711 441.922 13.7418 429.52 8.1422C417.027 2.50186 403.702 0.794335 390.065 0.778669C361.595 0.732457 333.118 0.778669 304.648 0.794335H296.446C296.701 0.919658 296.956 1.05281 297.203 1.18597C313.691 9.67741 322.025 22.3742 323.103 39.7307C324.215 57.793 315.494 71.0616 300.283 81.2911C342.308 99.0322 340.414 160.104 299.419 180.108C299.666 180.132 299.913 180.148 300.152 180.156C301.486 180.226 302.614 180.21 303.446 180.21C334.625 180.171 365.219 180.782 396.398 180.492C403.109 180.43 409.936 179.615 416.5 178.244C439.13 173.513 455.28 161.811 460.098 139.136C461.226 133.841 461.226 128.256 461.152 122.812Z" fill="#134982"/>
<path d="M280.239 131.765C276.698 140.052 269.097 143.177 260.82 143.553C245.98 144.227 215.138 143.741 215.138 143.741V101.484C215.138 101.484 249.678 101.507 263.406 102.98C281.557 104.922 284.842 121.003 280.239 131.765ZM215.212 37.0439C215.212 37.0439 242.826 36.7471 256.019 37.1387C266.708 37.4591 273.214 43.2474 274.054 52.0279C274.532 57.0878 272.77 63.2365 268.495 67.0119C264.666 70.4034 258.333 71.6958 258.053 71.7671C257.65 71.8682 256.917 71.9316 256.513 71.9316C243.032 71.9786 215.155 71.9629 215.155 71.9629L215.212 37.0439ZM300.284 81.2909C315.494 71.0614 324.215 57.7928 323.104 39.7306C322.025 22.3741 313.691 9.67723 297.204 1.18579H162.762L163.281 180.155H300.152C299.913 180.148 299.666 180.132 299.419 180.108C340.414 160.104 342.308 99.032 300.284 81.2909Z" fill="#C5E7EB"/>
</g>
<defs>
<clipPath id="clip0_31:671">
<rect width="462" height="266.312" fill="white" transform="translate(0 0.0943604)"/>
</clipPath>
</defs>
</svg>
